<svg xmlns="http://www.w3.org/2000/svg" xmlns:xlink="http://www.w3.org/1999/xlink" width="65" zoomAndPan="magnify" viewBox="0 0 48.75 48.75" height="65" preserveAspectRatio="xMidYMid meet" version="1.0"><defs><clipPath id="d40fffea1c"><path d="M 0 0 L 48.378906 0 L 48.378906 48.378906 L 0 48.378906 Z M 0 0 " clip-rule="nonzero"/></clipPath></defs><g clip-path="url(#d40fffea1c)"><path fill="#ffffff" d="M 0 0 L 48.378906 0 L 48.378906 48.378906 L 0 48.378906 Z M 0 0 " fill-opacity="1" fill-rule="nonzero"/></g><path stroke-linecap="butt" transform="matrix(1.307503, 0, 0, 1.307503, 0, 0.0000021898)" fill-opacity="1" fill="#ffffff" fill-rule="nonzero" stroke-linejoin="miter" d="M 1.998682 2.500591 L 8.998548 2.500591 M 12.001052 2.500591 L 12.998899 2.500591 M 15.000568 2.500591 L 16.001402 2.500591 M 18.000084 2.500591 L 23.001269 2.500591 M 24.99995 2.500591 L 26.000785 2.500591 M 27.999466 2.500591 L 34.999333 2.500591 M 1.998682 3.501425 L 2.999516 3.501425 M 8.000701 3.501425 L 8.998548 3.501425 M 11.000217 3.501425 L 19.000918 3.501425 M 19.998765 3.501425 L 20.9996 3.501425 M 23.001269 3.501425 L 23.999116 3.501425 M 26.000785 3.501425 L 26.998632 3.501425 M 27.999466 3.501425 L 29.000301 3.501425 M 34.001486 3.501425 L 34.999333 3.501425 M 1.998682 4.499272 L 2.999516 4.499272 M 4.000351 4.499272 L 6.999867 4.499272 M 8.000701 4.499272 L 8.998548 4.499272 M 9.999383 4.499272 L 11.000217 4.499272 M 12.001052 4.499272 L 12.998899 4.499272 M 13.999733 4.499272 L 16.001402 4.499272 M 19.998765 4.499272 L 24.99995 4.499272 M 27.999466 4.499272 L 29.000301 4.499272 M 30.001135 4.499272 L 33.000652 4.499272 M 34.001486 4.499272 L 34.999333 4.499272 M 1.998682 5.500107 L 2.999516 5.500107 M 4.000351 5.500107 L 6.999867 5.500107 M 8.000701 5.500107 L 8.998548 5.500107 M 9.999383 5.500107 L 12.001052 5.500107 M 16.001402 5.500107 L 19.000918 5.500107 M 20.9996 5.500107 L 23.001269 5.500107 M 24.99995 5.500107 L 26.998632 5.500107 M 27.999466 5.500107 L 29.000301 5.500107 M 30.001135 5.500107 L 33.000652 5.500107 M 34.001486 5.500107 L 34.999333 5.500107 M 1.998682 6.500941 L 2.999516 6.500941 M 4.000351 6.500941 L 6.999867 6.500941 M 8.000701 6.500941 L 8.998548 6.500941 M 9.999383 6.500941 L 12.001052 6.500941 M 15.000568 6.500941 L 16.001402 6.500941 M 16.999249 6.500941 L 18.000084 6.500941 M 22.000434 6.500941 L 23.001269 6.500941 M 24.99995 6.500941 L 26.000785 6.500941 M 27.999466 6.500941 L 29.000301 6.500941 M 30.001135 6.500941 L 33.000652 6.500941 M 34.001486 6.500941 L 34.999333 6.500941 M 1.998682 7.498788 L 2.999516 7.498788 M 8.000701 7.498788 L 8.998548 7.498788 M 9.999383 7.498788 L 11.000217 7.498788 M 12.998899 7.498788 L 13.999733 7.498788 M 16.999249 7.498788 L 22.000434 7.498788 M 23.001269 7.498788 L 23.999116 7.498788 M 26.000785 7.498788 L 26.998632 7.498788 M 27.999466 7.498788 L 29.000301 7.498788 M 34.001486 7.498788 L 34.999333 7.498788 M 1.998682 8.499623 L 8.998548 8.499623 M 9.999383 8.499623 L 11.000217 8.499623 M 12.001052 8.499623 L 12.998899 8.499623 M 13.999733 8.499623 L 15.000568 8.499623 M 16.001402 8.499623 L 16.999249 8.499623 M 18.000084 8.499623 L 19.000918 8.499623 M 19.998765 8.499623 L 20.9996 8.499623 M 22.000434 8.499623 L 23.001269 8.499623 M 23.999116 8.499623 L 24.99995 8.499623 M 26.000785 8.499623 L 26.998632 8.499623 M 27.999466 8.499623 L 34.999333 8.499623 M 9.999383 9.500457 L 12.998899 9.500457 M 13.999733 9.500457 L 15.000568 9.500457 M 16.001402 9.500457 L 18.000084 9.500457 M 23.001269 9.500457 L 26.000785 9.500457 M 1.998682 10.501292 L 2.999516 10.501292 M 4.000351 10.501292 L 8.998548 10.501292 M 11.000217 10.501292 L 12.001052 10.501292 M 13.999733 10.501292 L 19.998765 10.501292 M 23.999116 10.501292 L 26.998632 10.501292 M 27.999466 10.501292 L 33.000652 10.501292 M 5.001185 11.499139 L 5.999032 11.499139 M 9.999383 11.499139 L 12.998899 11.499139 M 18.000084 11.499139 L 22.000434 11.499139 M 24.99995 11.499139 L 26.000785 11.499139 M 27.999466 11.499139 L 30.001135 11.499139 M 30.998982 11.499139 L 33.000652 11.499139 M 34.001486 11.499139 L 34.999333 11.499139 M 4.000351 12.499974 L 5.999032 12.499974 M 8.000701 12.499974 L 9.999383 12.499974 M 13.999733 12.499974 L 15.000568 12.499974 M 16.999249 12.499974 L 19.000918 12.499974 M 19.998765 12.499974 L 20.9996 12.499974 M 23.001269 12.499974 L 24.99995 12.499974 M 26.000785 12.499974 L 29.000301 12.499974 M 30.001135 12.499974 L 30.998982 12.499974 M 31.999817 12.499974 L 34.001486 12.499974 M 1.998682 13.500808 L 4.000351 13.500808 M 5.001185 13.500808 L 6.999867 13.500808 M 12.001052 13.500808 L 12.998899 13.500808 M 16.001402 13.500808 L 16.999249 13.500808 M 18.000084 13.500808 L 19.000918 13.500808 M 19.998765 13.500808 L 26.000785 13.500808 M 26.998632 13.500808 L 27.999466 13.500808 M 30.001135 13.500808 L 33.000652 13.500808 M 34.001486 13.500808 L 34.999333 13.500808 M 1.998682 14.498655 L 4.000351 14.498655 M 5.001185 14.498655 L 6.999867 14.498655 M 8.000701 14.498655 L 8.998548 14.498655 M 12.001052 14.498655 L 12.998899 14.498655 M 13.999733 14.498655 L 15.000568 14.498655 M 20.9996 14.498655 L 22.000434 14.498655 M 23.001269 14.498655 L 23.999116 14.498655 M 24.99995 14.498655 L 27.999466 14.498655 M 29.000301 14.498655 L 31.999817 14.498655 M 33.000652 14.498655 L 34.999333 14.498655 M 1.998682 15.49949 L 2.999516 15.49949 M 5.001185 15.49949 L 6.999867 15.49949 M 11.000217 15.49949 L 12.001052 15.49949 M 16.001402 15.49949 L 20.9996 15.49949 M 23.999116 15.49949 L 26.000785 15.49949 M 27.999466 15.49949 L 29.000301 15.49949 M 30.998982 15.49949 L 34.999333 15.49949 M 4.000351 16.500324 L 5.001185 16.500324 M 6.999867 16.500324 L 8.998548 16.500324 M 12.001052 16.500324 L 12.998899 16.500324 M 13.999733 16.500324 L 16.001402 16.500324 M 19.000918 16.500324 L 19.998765 16.500324 M 22.000434 16.500324 L 23.001269 16.500324 M 23.999116 16.500324 L 24.99995 16.500324 M 26.998632 16.500324 L 29.000301 16.500324 M 30.998982 16.500324 L 34.001486 16.500324 M 1.998682 17.501159 L 2.999516 17.501159 M 5.001185 17.501159 L 8.000701 17.501159 M 8.998548 17.501159 L 9.999383 17.501159 M 12.998899 17.501159 L 13.999733 17.501159 M 16.001402 17.501159 L 16.999249 17.501159 M 18.000084 17.501159 L 19.000918 17.501159 M 23.001269 17.501159 L 23.999116 17.501159 M 26.000785 17.501159 L 30.001135 17.501159 M 31.999817 17.501159 L 33.000652 17.501159 M 2.999516 18.499006 L 11.000217 18.499006 M 12.001052 18.499006 L 12.998899 18.499006 M 15.000568 18.499006 L 16.001402 18.499006 M 19.000918 18.499006 L 19.998765 18.499006 M 20.9996 18.499006 L 22.000434 18.499006 M 23.999116 18.499006 L 27.999466 18.499006 M 29.000301 18.499006 L 30.998982 18.499006 M 34.001486 18.499006 L 34.999333 18.499006 M 1.998682 19.49984 L 2.999516 19.49984 M 9.999383 19.49984 L 16.999249 19.49984 M 19.000918 19.49984 L 23.999116 19.49984 M 24.99995 19.49984 L 30.001135 19.49984 M 30.998982 19.49984 L 33.000652 19.49984 M 34.001486 19.49984 L 34.999333 19.49984 M 1.998682 20.500675 L 2.999516 20.500675 M 5.999032 20.500675 L 8.998548 20.500675 M 11.000217 20.500675 L 12.998899 20.500675 M 16.001402 20.500675 L 18.000084 20.500675 M 19.000918 20.500675 L 20.9996 20.500675 M 22.000434 20.500675 L 23.999116 20.500675 M 29.000301 20.500675 L 30.998982 20.500675 M 31.999817 20.500675 L 34.001486 20.500675 M 1.998682 21.498522 L 2.999516 21.498522 M 6.999867 21.498522 L 8.000701 21.498522 M 8.998548 21.498522 L 11.000217 21.498522 M 13.999733 21.498522 L 15.000568 21.498522 M 16.001402 21.498522 L 16.999249 21.498522 M 18.000084 21.498522 L 19.998765 21.498522 M 23.001269 21.498522 L 23.999116 21.498522 M 24.99995 21.498522 L 26.000785 21.498522 M 26.998632 21.498522 L 27.999466 21.498522 M 29.000301 21.498522 L 34.999333 21.498522 M 2.999516 22.499356 L 9.999383 22.499356 M 11.000217 22.499356 L 13.999733 22.499356 M 15.000568 22.499356 L 16.999249 22.499356 M 18.000084 22.499356 L 19.000918 22.499356 M 20.9996 22.499356 L 22.000434 22.499356 M 23.001269 22.499356 L 23.999116 22.499356 M 26.000785 22.499356 L 27.999466 22.499356 M 29.000301 22.499356 L 31.999817 22.499356 M 33.000652 22.499356 L 34.999333 22.499356 M 1.998682 23.500191 L 5.999032 23.500191 M 11.000217 23.500191 L 12.998899 23.500191 M 13.999733 23.500191 L 15.000568 23.500191 M 16.999249 23.500191 L 18.000084 23.500191 M 19.000918 23.500191 L 20.9996 23.500191 M 23.999116 23.500191 L 26.000785 23.500191 M 27.999466 23.500191 L 29.000301 23.500191 M 30.998982 23.500191 L 31.999817 23.500191 M 34.001486 23.500191 L 34.999333 23.500191 M 1.998682 24.501025 L 2.999516 24.501025 M 5.001185 24.501025 L 8.998548 24.501025 M 12.001052 24.501025 L 12.998899 24.501025 M 15.000568 24.501025 L 16.001402 24.501025 M 16.999249 24.501025 L 19.000918 24.501025 M 22.000434 24.501025 L 23.001269 24.501025 M 26.000785 24.501025 L 27.999466 24.501025 M 30.998982 24.501025 L 34.001486 24.501025 M 1.998682 25.498872 L 2.999516 25.498872 M 4.000351 25.498872 L 5.001185 25.498872 M 12.001052 25.498872 L 12.998899 25.498872 M 15.000568 25.498872 L 16.001402 25.498872 M 16.999249 25.498872 L 18.000084 25.498872 M 20.9996 25.498872 L 22.000434 25.498872 M 23.001269 25.498872 L 24.99995 25.498872 M 26.998632 25.498872 L 33.000652 25.498872 M 34.001486 25.498872 L 34.999333 25.498872 M 1.998682 26.499707 L 2.999516 26.499707 M 5.001185 26.499707 L 6.999867 26.499707 M 8.000701 26.499707 L 8.998548 26.499707 M 9.999383 26.499707 L 12.001052 26.499707 M 13.999733 26.499707 L 15.000568 26.499707 M 16.001402 26.499707 L 18.000084 26.499707 M 19.000918 26.499707 L 22.000434 26.499707 M 23.999116 26.499707 L 24.99995 26.499707 M 26.000785 26.499707 L 30.998982 26.499707 M 33.000652 26.499707 L 34.999333 26.499707 M 9.999383 27.500541 L 11.000217 27.500541 M 12.001052 27.500541 L 15.000568 27.500541 M 18.000084 27.500541 L 19.000918 27.500541 M 19.998765 27.500541 L 23.001269 27.500541 M 24.99995 27.500541 L 26.998632 27.500541 M 30.001135 27.500541 L 30.998982 27.500541 M 31.999817 27.500541 L 33.000652 27.500541 M 34.001486 27.500541 L 34.999333 27.500541 M 1.998682 28.501376 L 8.998548 28.501376 M 12.001052 28.501376 L 12.998899 28.501376 M 16.001402 28.501376 L 19.000918 28.501376 M 19.998765 28.501376 L 20.9996 28.501376 M 23.999116 28.501376 L 26.998632 28.501376 M 27.999466 28.501376 L 29.000301 28.501376 M 30.001135 28.501376 L 30.998982 28.501376 M 31.999817 28.501376 L 34.001486 28.501376 M 1.998682 29.499223 L 2.999516 29.499223 M 8.000701 29.499223 L 8.998548 29.499223 M 9.999383 29.499223 L 12.001052 29.499223 M 13.999733 29.499223 L 15.000568 29.499223 M 16.999249 29.499223 L 18.000084 29.499223 M 19.998765 29.499223 L 20.9996 29.499223 M 22.000434 29.499223 L 23.001269 29.499223 M 23.999116 29.499223 L 26.998632 29.499223 M 30.001135 29.499223 L 34.001486 29.499223 M 1.998682 30.500057 L 2.999516 30.500057 M 4.000351 30.500057 L 6.999867 30.500057 M 8.000701 30.500057 L 8.998548 30.500057 M 9.999383 30.500057 L 11.000217 30.500057 M 12.001052 30.500057 L 12.998899 30.500057 M 13.999733 30.500057 L 16.001402 30.500057 M 19.998765 30.500057 L 20.9996 30.500057 M 23.999116 30.500057 L 24.99995 30.500057 M 26.000785 30.500057 L 31.999817 30.500057 M 33.000652 30.500057 L 34.999333 30.500057 M 1.998682 31.500892 L 2.999516 31.500892 M 4.000351 31.500892 L 6.999867 31.500892 M 8.000701 31.500892 L 8.998548 31.500892 M 9.999383 31.500892 L 11.000217 31.500892 M 12.001052 31.500892 L 12.998899 31.500892 M 15.000568 31.500892 L 20.9996 31.500892 M 22.000434 31.500892 L 23.999116 31.500892 M 24.99995 31.500892 L 26.000785 31.500892 M 26.998632 31.500892 L 27.999466 31.500892 M 30.001135 31.500892 L 33.000652 31.500892 M 34.001486 31.500892 L 34.999333 31.500892 M 1.998682 32.498739 L 2.999516 32.498739 M 4.000351 32.498739 L 6.999867 32.498739 M 8.000701 32.498739 L 8.998548 32.498739 M 9.999383 32.498739 L 11.000217 32.498739 M 12.001052 32.498739 L 12.998899 32.498739 M 16.001402 32.498739 L 16.999249 32.498739 M 19.000918 32.498739 L 19.998765 32.498739 M 22.000434 32.498739 L 30.001135 32.498739 M 31.999817 32.498739 L 33.000652 32.498739 M 1.998682 33.499573 L 2.999516 33.499573 M 8.000701 33.499573 L 8.998548 33.499573 M 11.000217 33.499573 L 13.999733 33.499573 M 15.000568 33.499573 L 16.001402 33.499573 M 18.000084 33.499573 L 19.000918 33.499573 M 22.000434 33.499573 L 26.000785 33.499573 M 26.998632 33.499573 L 29.000301 33.499573 M 30.001135 33.499573 L 33.000652 33.499573 M 1.998682 34.500408 L 8.998548 34.500408 M 9.999383 34.500408 L 11.000217 34.500408 M 16.001402 34.500408 L 16.999249 34.500408 M 19.000918 34.500408 L 19.998765 34.500408 M 23.999116 34.500408 L 26.998632 34.500408 M 27.999466 34.500408 L 30.001135 34.500408 M 33.000652 34.500408 L 34.001486 34.500408 " stroke="#007acc" stroke-width="1" stroke-opacity="1" stroke-miterlimit="4"/></svg>