<svg xmlns="http://www.w3.org/2000/svg" xmlns:xlink="http://www.w3.org/1999/xlink" width="500" zoomAndPan="magnify" viewBox="0 0 375 374.999991" height="500" preserveAspectRatio="xMidYMid meet" version="1.0"><defs><clipPath id="40d92f182d"><path d="M 291.074219 187.5 L 298.046875 187.5 L 298.046875 191.25 L 291.074219 191.25 Z M 291.074219 187.5 " clip-rule="nonzero"/></clipPath><clipPath id="a14bd9fb3b"><path d="M 294.558594 187.5 C 292.632812 187.5 291.074219 188.339844 291.074219 189.375 C 291.074219 190.410156 292.632812 191.25 294.558594 191.25 C 296.480469 191.25 298.039062 190.410156 298.039062 189.375 C 298.039062 188.339844 296.480469 187.5 294.558594 187.5 Z M 294.558594 187.5 " clip-rule="nonzero"/></clipPath></defs><path fill="#0079ad" d="M 177.75 3.429688 C 183.785156 0.0429688 191.214844 0.0429688 197.238281 3.429688 C 227.050781 20.164062 316.769531 70.53125 346.589844 87.261719 C 352.625 90.640625 356.339844 96.894531 356.339844 103.667969 C 356.339844 137.132812 356.339844 237.859375 356.339844 271.324219 C 356.339844 278.09375 352.625 284.351562 346.589844 287.738281 C 316.777344 304.46875 227.0625 354.835938 197.238281 371.570312 C 191.207031 374.957031 183.777344 374.957031 177.75 371.570312 C 147.9375 354.835938 58.222656 304.46875 28.402344 287.738281 C 22.375 284.351562 18.660156 278.105469 18.660156 271.332031 C 18.660156 237.867188 18.660156 137.140625 18.660156 103.675781 C 18.660156 96.90625 22.375 90.648438 28.410156 87.261719 C 58.214844 70.53125 147.949219 20.164062 177.75 3.429688 Z M 177.75 3.429688 " fill-opacity="1" fill-rule="nonzero"/><path fill="#38abff" d="M 21.363281 279.953125 C 19 276.789062 18.660156 273.785156 18.660156 269.742188 C 18.660156 236.472656 18.660156 136.324219 18.660156 103.046875 C 18.660156 96.308594 22.367188 90.089844 28.382812 86.730469 C 58.089844 70.09375 147.503906 20.019531 177.210938 3.375 C 183.226562 0.0078125 191.375 0.078125 197.390625 3.449219 C 227.097656 20.082031 316.207031 69.730469 345.914062 86.367188 C 348.316406 87.714844 350.144531 89.34375 351.78125 91.484375 Z M 21.363281 279.953125 " fill-opacity="1" fill-rule="nonzero"/><path fill="#ffffff" d="M 187.5 63.09375 C 118.808594 63.09375 63.09375 118.808594 63.09375 187.5 C 63.09375 256.191406 118.808594 311.90625 187.5 311.90625 C 256.191406 311.90625 311.90625 256.191406 311.90625 187.5 C 311.90625 118.808594 256.191406 63.09375 187.5 63.09375 Z M 187.5 249.703125 C 153.199219 249.703125 125.296875 221.800781 125.296875 187.5 C 125.296875 153.199219 153.199219 125.296875 187.5 125.296875 C 221.800781 125.296875 249.703125 153.199219 249.703125 187.5 C 249.703125 221.800781 221.800781 249.703125 187.5 249.703125 Z M 187.5 249.703125 " fill-opacity="1" fill-rule="nonzero"/><path fill="#0079ad" d="M 351.761719 91.574219 C 356.347656 95.863281 356.257812 102.335938 356.257812 107.425781 C 356.257812 141.148438 355.972656 237.066406 356.339844 270.789062 C 356.375 274.308594 355.210938 278.015625 353.46875 280.804688 L 183.882812 187.5 Z M 351.761719 91.574219 " fill-opacity="1" fill-rule="nonzero"/><path fill="#ffffff" d="M 276.363281 151.953125 L 285.25 151.953125 L 285.25 223.046875 L 276.363281 223.046875 Z M 303.019531 151.953125 L 311.90625 151.953125 L 311.90625 223.046875 L 303.019531 223.046875 Z M 303.019531 151.953125 " fill-opacity="1" fill-rule="nonzero"/><path fill="#ffffff" d="M 258.589844 196.386719 L 329.679688 196.386719 L 329.679688 205.273438 L 258.589844 205.273438 Z M 258.589844 169.726562 L 329.679688 169.726562 L 329.679688 178.613281 L 258.589844 178.613281 Z M 258.589844 169.726562 " fill-opacity="1" fill-rule="nonzero"/><g clip-path="url(#40d92f182d)"><g clip-path="url(#a14bd9fb3b)"><path fill="#0079ad" d="M 291.074219 187.5 L 298.03125 187.5 L 298.03125 191.25 L 291.074219 191.25 Z M 291.074219 187.5 " fill-opacity="1" fill-rule="nonzero"/></g></g></svg>