<svg xmlns="http://www.w3.org/2000/svg" xmlns:xlink="http://www.w3.org/1999/xlink" width="65" zoomAndPan="magnify" viewBox="0 0 48.75 48.75" height="65" preserveAspectRatio="xMidYMid meet" version="1.0"><defs><clipPath id="b04d1eee77"><path d="M 0 0 L 48.378906 0 L 48.378906 48.378906 L 0 48.378906 Z M 0 0 " clip-rule="nonzero"/></clipPath></defs><g clip-path="url(#b04d1eee77)"><path fill="#ffffff" d="M 0 0 L 48.378906 0 L 48.378906 48.378906 L 0 48.378906 Z M 0 0 " fill-opacity="1" fill-rule="nonzero"/></g><path stroke-linecap="butt" transform="matrix(1.465988, 0, 0, 1.465988, -0.000000000000005302, 0.0000021898)" fill-opacity="1" fill="#ffffff" fill-rule="nonzero" stroke-linejoin="miter" d="M 2.001104 2.49938 L 9.000971 2.49938 M 10.00019 2.49938 L 10.99941 2.49938 M 12.001294 2.49938 L 14.998953 2.49938 M 19.001161 2.49938 L 20.9996 2.49938 M 23.999924 2.49938 L 30.99979 2.49938 M 2.001104 3.501264 L 3.000324 3.501264 M 7.999086 3.501264 L 9.000971 3.501264 M 10.99941 3.501264 L 14.998953 3.501264 M 17.999277 3.501264 L 19.001161 3.501264 M 20.9996 3.501264 L 21.99882 3.501264 M 23.999924 3.501264 L 24.999143 3.501264 M 30.000571 3.501264 L 30.99979 3.501264 M 2.001104 4.500484 L 3.000324 4.500484 M 3.999543 4.500484 L 6.999867 4.500484 M 7.999086 4.500484 L 9.000971 4.500484 M 10.99941 4.500484 L 12.001294 4.500484 M 13.999733 4.500484 L 16.000837 4.500484 M 17.000057 4.500484 L 20.9996 4.500484 M 23.999924 4.500484 L 24.999143 4.500484 M 26.001028 4.500484 L 28.998687 4.500484 M 30.000571 4.500484 L 30.99979 4.500484 M 2.001104 5.499703 L 3.000324 5.499703 M 3.999543 5.499703 L 6.999867 5.499703 M 7.999086 5.499703 L 9.000971 5.499703 M 10.00019 5.499703 L 10.99941 5.499703 M 13.999733 5.499703 L 14.998953 5.499703 M 16.000837 5.499703 L 19.001161 5.499703 M 20.000381 5.499703 L 20.9996 5.499703 M 23.999924 5.499703 L 24.999143 5.499703 M 26.001028 5.499703 L 28.998687 5.499703 M 30.000571 5.499703 L 30.99979 5.499703 M 2.001104 6.498923 L 3.000324 6.498923 M 3.999543 6.498923 L 6.999867 6.498923 M 7.999086 6.498923 L 9.000971 6.498923 M 10.00019 6.498923 L 10.99941 6.498923 M 12.001294 6.498923 L 13.000514 6.498923 M 13.999733 6.498923 L 17.000057 6.498923 M 17.999277 6.498923 L 19.001161 6.498923 M 20.000381 6.498923 L 20.9996 6.498923 M 23.999924 6.498923 L 24.999143 6.498923 M 26.001028 6.498923 L 28.998687 6.498923 M 30.000571 6.498923 L 30.99979 6.498923 M 2.001104 7.500807 L 3.000324 7.500807 M 7.999086 7.500807 L 9.000971 7.500807 M 10.00019 7.500807 L 13.000514 7.500807 M 14.998953 7.500807 L 17.999277 7.500807 M 20.000381 7.500807 L 21.99882 7.500807 M 23.999924 7.500807 L 24.999143 7.500807 M 30.000571 7.500807 L 30.99979 7.500807 M 2.001104 8.500027 L 9.000971 8.500027 M 10.00019 8.500027 L 10.99941 8.500027 M 12.001294 8.500027 L 13.000514 8.500027 M 13.999733 8.500027 L 14.998953 8.500027 M 16.000837 8.500027 L 17.000057 8.500027 M 17.999277 8.500027 L 19.001161 8.500027 M 20.000381 8.500027 L 20.9996 8.500027 M 21.99882 8.500027 L 23.000704 8.500027 M 23.999924 8.500027 L 30.99979 8.500027 M 10.00019 9.499247 L 10.99941 9.499247 M 12.001294 9.499247 L 13.000514 9.499247 M 13.999733 9.499247 L 14.998953 9.499247 M 16.000837 9.499247 L 17.000057 9.499247 M 19.001161 9.499247 L 20.9996 9.499247 M 2.001104 10.501131 L 3.000324 10.501131 M 6.000647 10.501131 L 6.999867 10.501131 M 7.999086 10.501131 L 10.99941 10.501131 M 12.001294 10.501131 L 13.999733 10.501131 M 14.998953 10.501131 L 20.000381 10.501131 M 21.99882 10.501131 L 27.999467 10.501131 M 30.000571 10.501131 L 30.99979 10.501131 M 2.001104 11.500351 L 6.000647 11.500351 M 10.00019 11.500351 L 10.99941 11.500351 M 13.999733 11.500351 L 14.998953 11.500351 M 19.001161 11.500351 L 20.9996 11.500351 M 23.000704 11.500351 L 30.99979 11.500351 M 2.001104 12.49957 L 3.000324 12.49957 M 4.998763 12.49957 L 6.000647 12.49957 M 6.999867 12.49957 L 9.000971 12.49957 M 10.99941 12.49957 L 12.001294 12.49957 M 13.999733 12.49957 L 17.999277 12.49957 M 20.000381 12.49957 L 20.9996 12.49957 M 23.999924 12.49957 L 26.001028 12.49957 M 30.000571 12.49957 L 30.99979 12.49957 M 2.001104 13.49879 L 3.000324 13.49879 M 4.998763 13.49879 L 7.999086 13.49879 M 10.99941 13.49879 L 13.999733 13.49879 M 14.998953 13.49879 L 16.000837 13.49879 M 17.000057 13.49879 L 20.000381 13.49879 M 21.99882 13.49879 L 23.000704 13.49879 M 23.999924 13.49879 L 27.999467 13.49879 M 28.998687 13.49879 L 30.99979 13.49879 M 2.001104 14.500674 L 4.998763 14.500674 M 6.000647 14.500674 L 6.999867 14.500674 M 7.999086 14.500674 L 9.000971 14.500674 M 10.99941 14.500674 L 12.001294 14.500674 M 13.000514 14.500674 L 16.000837 14.500674 M 19.001161 14.500674 L 20.000381 14.500674 M 20.9996 14.500674 L 23.999924 14.500674 M 28.998687 14.500674 L 30.000571 14.500674 M 2.001104 15.499894 L 4.998763 15.499894 M 6.000647 15.499894 L 7.999086 15.499894 M 9.000971 15.499894 L 10.00019 15.499894 M 12.001294 15.499894 L 13.999733 15.499894 M 14.998953 15.499894 L 17.000057 15.499894 M 17.999277 15.499894 L 19.001161 15.499894 M 20.9996 15.499894 L 21.99882 15.499894 M 23.999924 15.499894 L 30.99979 15.499894 M 3.000324 16.499113 L 3.999543 16.499113 M 4.998763 16.499113 L 6.000647 16.499113 M 6.999867 16.499113 L 9.000971 16.499113 M 10.99941 16.499113 L 13.000514 16.499113 M 17.999277 16.499113 L 20.9996 16.499113 M 21.99882 16.499113 L 26.001028 16.499113 M 27.000247 16.499113 L 28.998687 16.499113 M 30.000571 16.499113 L 30.99979 16.499113 M 3.000324 17.500998 L 3.999543 17.500998 M 4.998763 17.500998 L 7.999086 17.500998 M 9.000971 17.500998 L 10.00019 17.500998 M 10.99941 17.500998 L 12.001294 17.500998 M 13.000514 17.500998 L 13.999733 17.500998 M 16.000837 17.500998 L 17.000057 17.500998 M 19.001161 17.500998 L 20.000381 17.500998 M 20.9996 17.500998 L 23.999924 17.500998 M 28.998687 17.500998 L 30.99979 17.500998 M 2.001104 18.500217 L 3.000324 18.500217 M 3.999543 18.500217 L 6.000647 18.500217 M 7.999086 18.500217 L 9.000971 18.500217 M 13.000514 18.500217 L 13.999733 18.500217 M 14.998953 18.500217 L 20.000381 18.500217 M 21.99882 18.500217 L 23.000704 18.500217 M 24.999143 18.500217 L 26.001028 18.500217 M 28.998687 18.500217 L 30.000571 18.500217 M 2.001104 19.499437 L 3.999543 19.499437 M 4.998763 19.499437 L 6.999867 19.499437 M 19.001161 19.499437 L 20.9996 19.499437 M 21.99882 19.499437 L 23.000704 19.499437 M 23.999924 19.499437 L 27.999467 19.499437 M 28.998687 19.499437 L 30.99979 19.499437 M 3.999543 20.501321 L 4.998763 20.501321 M 7.999086 20.501321 L 9.000971 20.501321 M 14.998953 20.501321 L 17.999277 20.501321 M 19.001161 20.501321 L 20.000381 20.501321 M 21.99882 20.501321 L 23.000704 20.501321 M 27.999467 20.501321 L 28.998687 20.501321 M 30.000571 20.501321 L 30.99979 20.501321 M 3.999543 21.500541 L 4.998763 21.500541 M 6.000647 21.500541 L 6.999867 21.500541 M 9.000971 21.500541 L 16.000837 21.500541 M 17.000057 21.500541 L 20.9996 21.500541 M 21.99882 21.500541 L 23.999924 21.500541 M 24.999143 21.500541 L 27.000247 21.500541 M 28.998687 21.500541 L 30.99979 21.500541 M 2.001104 22.49976 L 6.000647 22.49976 M 6.999867 22.49976 L 10.00019 22.49976 M 12.001294 22.49976 L 13.999733 22.49976 M 14.998953 22.49976 L 16.000837 22.49976 M 19.001161 22.49976 L 20.000381 22.49976 M 21.99882 22.49976 L 27.999467 22.49976 M 30.000571 22.49976 L 30.99979 22.49976 M 10.00019 23.49898 L 10.99941 23.49898 M 12.001294 23.49898 L 13.000514 23.49898 M 14.998953 23.49898 L 17.000057 23.49898 M 17.999277 23.49898 L 23.000704 23.49898 M 26.001028 23.49898 L 27.000247 23.49898 M 30.000571 23.49898 L 30.99979 23.49898 M 2.001104 24.500864 L 9.000971 24.500864 M 10.00019 24.500864 L 12.001294 24.500864 M 13.000514 24.500864 L 14.998953 24.500864 M 17.999277 24.500864 L 19.001161 24.500864 M 20.000381 24.500864 L 23.000704 24.500864 M 23.999924 24.500864 L 24.999143 24.500864 M 26.001028 24.500864 L 28.998687 24.500864 M 30.000571 24.500864 L 30.99979 24.500864 M 2.001104 25.500084 L 3.000324 25.500084 M 7.999086 25.500084 L 9.000971 25.500084 M 10.99941 25.500084 L 14.998953 25.500084 M 16.000837 25.500084 L 17.000057 25.500084 M 19.001161 25.500084 L 20.000381 25.500084 M 20.9996 25.500084 L 23.000704 25.500084 M 26.001028 25.500084 L 27.000247 25.500084 M 28.998687 25.500084 L 30.000571 25.500084 M 2.001104 26.499304 L 3.000324 26.499304 M 3.999543 26.499304 L 6.999867 26.499304 M 7.999086 26.499304 L 9.000971 26.499304 M 10.00019 26.499304 L 10.99941 26.499304 M 12.001294 26.499304 L 13.999733 26.499304 M 14.998953 26.499304 L 17.999277 26.499304 M 19.001161 26.499304 L 20.000381 26.499304 M 20.9996 26.499304 L 27.999467 26.499304 M 28.998687 26.499304 L 30.99979 26.499304 M 2.001104 27.501188 L 3.000324 27.501188 M 3.999543 27.501188 L 6.999867 27.501188 M 7.999086 27.501188 L 9.000971 27.501188 M 12.001294 27.501188 L 16.000837 27.501188 M 19.001161 27.501188 L 20.9996 27.501188 M 23.000704 27.501188 L 23.999924 27.501188 M 28.998687 27.501188 L 30.000571 27.501188 M 2.001104 28.500408 L 3.000324 28.500408 M 3.999543 28.500408 L 6.999867 28.500408 M 7.999086 28.500408 L 9.000971 28.500408 M 13.999733 28.500408 L 17.999277 28.500408 M 19.001161 28.500408 L 20.000381 28.500408 M 20.9996 28.500408 L 23.999924 28.500408 M 27.000247 28.500408 L 30.99979 28.500408 M 2.001104 29.499627 L 3.000324 29.499627 M 7.999086 29.499627 L 9.000971 29.499627 M 13.000514 29.499627 L 17.000057 29.499627 M 17.999277 29.499627 L 20.9996 29.499627 M 21.99882 29.499627 L 24.999143 29.499627 M 26.001028 29.499627 L 27.999467 29.499627 M 28.998687 29.499627 L 30.99979 29.499627 M 2.001104 30.498847 L 9.000971 30.498847 M 10.00019 30.498847 L 12.001294 30.498847 M 13.000514 30.498847 L 17.000057 30.498847 M 17.999277 30.498847 L 19.001161 30.498847 M 21.99882 30.498847 L 27.999467 30.498847 M 28.998687 30.498847 L 30.000571 30.498847 " stroke="#007acc" stroke-width="1" stroke-opacity="1" stroke-miterlimit="4"/></svg>