<svg xmlns="http://www.w3.org/2000/svg" xmlns:xlink="http://www.w3.org/1999/xlink" width="65" zoomAndPan="magnify" viewBox="0 0 48.75 48.75" height="65" preserveAspectRatio="xMidYMid meet" version="1.0"><defs><clipPath id="5e279e3378"><path d="M 0 0 L 48.378906 0 L 48.378906 48.378906 L 0 48.378906 Z M 0 0 " clip-rule="nonzero"/></clipPath></defs><g clip-path="url(#5e279e3378)"><path fill="#ffffff" d="M 0 0 L 48.378906 0 L 48.378906 48.378906 L 0 48.378906 Z M 0 0 " fill-opacity="1" fill-rule="nonzero"/></g><path stroke-linecap="butt" transform="matrix(1.668193, 0, 0, 1.668193, 0.000000000000005302, 0.0000021898)" fill-opacity="1" fill="#ffffff" fill-rule="nonzero" stroke-linejoin="miter" d="M 1.999731 2.500834 L 9.001132 2.500834 M 11.000864 2.500834 L 16.000192 2.500834 M 17.000057 2.500834 L 17.999923 2.500834 M 19.999654 2.500834 L 27.001055 2.500834 M 1.999731 3.500699 L 2.999597 3.500699 M 7.998925 3.500699 L 9.001132 3.500699 M 12.000729 3.500699 L 14.00046 3.500699 M 15.000326 3.500699 L 18.999789 3.500699 M 19.999654 3.500699 L 20.99952 3.500699 M 25.998848 3.500699 L 27.001055 3.500699 M 1.999731 4.500565 L 2.999597 4.500565 M 3.999463 4.500565 L 6.999059 4.500565 M 7.998925 4.500565 L 9.001132 4.500565 M 10.000998 4.500565 L 16.000192 4.500565 M 17.000057 4.500565 L 18.999789 4.500565 M 19.999654 4.500565 L 20.99952 4.500565 M 21.999385 4.500565 L 24.998982 4.500565 M 25.998848 4.500565 L 27.001055 4.500565 M 1.999731 5.50043 L 2.999597 5.50043 M 3.999463 5.50043 L 6.999059 5.50043 M 7.998925 5.50043 L 9.001132 5.50043 M 10.000998 5.50043 L 11.000864 5.50043 M 13.000595 5.50043 L 14.00046 5.50043 M 16.000192 5.50043 L 17.000057 5.50043 M 19.999654 5.50043 L 20.99952 5.50043 M 21.999385 5.50043 L 24.998982 5.50043 M 25.998848 5.50043 L 27.001055 5.50043 M 1.999731 6.500296 L 2.999597 6.500296 M 3.999463 6.500296 L 6.999059 6.500296 M 7.998925 6.500296 L 9.001132 6.500296 M 10.000998 6.500296 L 11.000864 6.500296 M 12.000729 6.500296 L 15.000326 6.500296 M 17.999923 6.500296 L 18.999789 6.500296 M 19.999654 6.500296 L 20.99952 6.500296 M 21.999385 6.500296 L 24.998982 6.500296 M 25.998848 6.500296 L 27.001055 6.500296 M 1.999731 7.500162 L 2.999597 7.500162 M 7.998925 7.500162 L 9.001132 7.500162 M 10.000998 7.500162 L 11.000864 7.500162 M 12.000729 7.500162 L 15.000326 7.500162 M 17.000057 7.500162 L 18.999789 7.500162 M 19.999654 7.500162 L 20.99952 7.500162 M 25.998848 7.500162 L 27.001055 7.500162 M 1.999731 8.500027 L 9.001132 8.500027 M 10.000998 8.500027 L 11.000864 8.500027 M 12.000729 8.500027 L 13.000595 8.500027 M 14.00046 8.500027 L 15.000326 8.500027 M 16.000192 8.500027 L 17.000057 8.500027 M 17.999923 8.500027 L 18.999789 8.500027 M 19.999654 8.500027 L 27.001055 8.500027 M 10.000998 9.499893 L 12.000729 9.499893 M 14.00046 9.499893 L 15.000326 9.499893 M 16.000192 9.499893 L 17.000057 9.499893 M 17.999923 9.499893 L 18.999789 9.499893 M 1.999731 10.499759 L 2.999597 10.499759 M 3.999463 10.499759 L 9.001132 10.499759 M 11.000864 10.499759 L 13.000595 10.499759 M 14.00046 10.499759 L 15.000326 10.499759 M 19.999654 10.499759 L 24.998982 10.499759 M 1.999731 11.499624 L 2.999597 11.499624 M 9.001132 11.499624 L 11.000864 11.499624 M 15.000326 11.499624 L 17.000057 11.499624 M 17.999923 11.499624 L 18.999789 11.499624 M 20.99952 11.499624 L 21.999385 11.499624 M 22.999251 11.499624 L 23.999117 11.499624 M 3.999463 12.49949 L 10.000998 12.49949 M 13.000595 12.49949 L 14.00046 12.49949 M 15.000326 12.49949 L 19.999654 12.49949 M 20.99952 12.49949 L 22.999251 12.49949 M 24.998982 12.49949 L 27.001055 12.49949 M 3.999463 13.499356 L 5.999194 13.499356 M 10.000998 13.499356 L 11.000864 13.499356 M 15.000326 13.499356 L 16.000192 13.499356 M 18.999789 13.499356 L 21.999385 13.499356 M 24.998982 13.499356 L 27.001055 13.499356 M 3.999463 14.499221 L 4.999328 14.499221 M 6.999059 14.499221 L 10.000998 14.499221 M 12.000729 14.499221 L 13.000595 14.499221 M 14.00046 14.499221 L 15.000326 14.499221 M 16.000192 14.499221 L 17.999923 14.499221 M 18.999789 14.499221 L 20.99952 14.499221 M 21.999385 14.499221 L 24.998982 14.499221 M 1.999731 15.499087 L 3.999463 15.499087 M 9.001132 15.499087 L 11.000864 15.499087 M 12.000729 15.499087 L 13.000595 15.499087 M 17.999923 15.499087 L 18.999789 15.499087 M 20.99952 15.499087 L 21.999385 15.499087 M 23.999117 15.499087 L 24.998982 15.499087 M 1.999731 16.498952 L 2.999597 16.498952 M 3.999463 16.498952 L 4.999328 16.498952 M 5.999194 16.498952 L 9.001132 16.498952 M 12.000729 16.498952 L 15.000326 16.498952 M 17.000057 16.498952 L 17.999923 16.498952 M 19.999654 16.498952 L 20.99952 16.498952 M 24.998982 16.498952 L 27.001055 16.498952 M 1.999731 17.50116 L 2.999597 17.50116 M 3.999463 17.50116 L 7.998925 17.50116 M 9.001132 17.50116 L 10.000998 17.50116 M 11.000864 17.50116 L 14.00046 17.50116 M 16.000192 17.50116 L 17.000057 17.50116 M 17.999923 17.50116 L 20.99952 17.50116 M 25.998848 17.50116 L 27.001055 17.50116 M 1.999731 18.501025 L 2.999597 18.501025 M 7.998925 18.501025 L 9.001132 18.501025 M 11.000864 18.501025 L 14.00046 18.501025 M 17.999923 18.501025 L 27.001055 18.501025 M 10.000998 19.500891 L 11.000864 19.500891 M 12.000729 19.500891 L 13.000595 19.500891 M 14.00046 19.500891 L 18.999789 19.500891 M 21.999385 19.500891 L 23.999117 19.500891 M 1.999731 20.500757 L 9.001132 20.500757 M 15.000326 20.500757 L 17.000057 20.500757 M 17.999923 20.500757 L 18.999789 20.500757 M 19.999654 20.500757 L 20.99952 20.500757 M 21.999385 20.500757 L 22.999251 20.500757 M 24.998982 20.500757 L 27.001055 20.500757 M 1.999731 21.500622 L 2.999597 21.500622 M 7.998925 21.500622 L 9.001132 21.500622 M 10.000998 21.500622 L 12.000729 21.500622 M 14.00046 21.500622 L 16.000192 21.500622 M 17.000057 21.500622 L 18.999789 21.500622 M 21.999385 21.500622 L 23.999117 21.500622 M 24.998982 21.500622 L 27.001055 21.500622 M 1.999731 22.500488 L 2.999597 22.500488 M 3.999463 22.500488 L 6.999059 22.500488 M 7.998925 22.500488 L 9.001132 22.500488 M 10.000998 22.500488 L 12.000729 22.500488 M 14.00046 22.500488 L 15.000326 22.500488 M 16.000192 22.500488 L 22.999251 22.500488 M 23.999117 22.500488 L 24.998982 22.500488 M 25.998848 22.500488 L 27.001055 22.500488 M 1.999731 23.500353 L 2.999597 23.500353 M 3.999463 23.500353 L 6.999059 23.500353 M 7.998925 23.500353 L 9.001132 23.500353 M 10.000998 23.500353 L 13.000595 23.500353 M 17.000057 23.500353 L 17.999923 23.500353 M 18.999789 23.500353 L 20.99952 23.500353 M 22.999251 23.500353 L 23.999117 23.500353 M 24.998982 23.500353 L 27.001055 23.500353 M 1.999731 24.500219 L 2.999597 24.500219 M 3.999463 24.500219 L 6.999059 24.500219 M 7.998925 24.500219 L 9.001132 24.500219 M 10.000998 24.500219 L 11.000864 24.500219 M 12.000729 24.500219 L 15.000326 24.500219 M 17.999923 24.500219 L 18.999789 24.500219 M 20.99952 24.500219 L 21.999385 24.500219 M 23.999117 24.500219 L 24.998982 24.500219 M 25.998848 24.500219 L 27.001055 24.500219 M 1.999731 25.500085 L 2.999597 25.500085 M 7.998925 25.500085 L 9.001132 25.500085 M 11.000864 25.500085 L 12.000729 25.500085 M 13.000595 25.500085 L 14.00046 25.500085 M 16.000192 25.500085 L 18.999789 25.500085 M 20.99952 25.500085 L 23.999117 25.500085 M 25.998848 25.500085 L 27.001055 25.500085 M 1.999731 26.49995 L 9.001132 26.49995 M 10.000998 26.49995 L 11.000864 26.49995 M 13.000595 26.49995 L 14.00046 26.49995 M 18.999789 26.49995 L 20.99952 26.49995 M 23.999117 26.49995 L 27.001055 26.49995 " stroke="#007acc" stroke-width="1" stroke-opacity="1" stroke-miterlimit="4"/></svg>