<svg xmlns="http://www.w3.org/2000/svg" xmlns:xlink="http://www.w3.org/1999/xlink" width="65" zoomAndPan="magnify" viewBox="0 0 48.75 48.75" height="65" preserveAspectRatio="xMidYMid meet" version="1.0"><defs><clipPath id="f27a64bc1d"><path d="M 0 0 L 47.832031 0 L 47.832031 47.832031 L 0 47.832031 Z M 0 0 " clip-rule="nonzero"/></clipPath></defs><g clip-path="url(#f27a64bc1d)"><path fill="#ffffff" d="M 0 0 L 47.832031 0 L 47.832031 47.832031 L 0 47.832031 Z M 0 0 " fill-opacity="1" fill-rule="nonzero"/></g><path stroke-linecap="butt" transform="matrix(1.166593, 0, 0, 1.166593, 0, 0.0000021898)" fill-opacity="1" fill="#ffffff" fill-rule="nonzero" stroke-linejoin="miter" d="M 1.99901 2.501272 L 9.000568 2.501272 M 15.998778 2.501272 L 18.001136 2.501272 M 18.998967 2.501272 L 20.000146 2.501272 M 26.000525 2.501272 L 26.998356 2.501272 M 27.999535 2.501272 L 29.000714 2.501272 M 32.000904 2.501272 L 38.999113 2.501272 M 1.99901 3.499103 L 3.000189 3.499103 M 7.999389 3.499103 L 9.000568 3.499103 M 12.000757 3.499103 L 15.998778 3.499103 M 16.999957 3.499103 L 20.000146 3.499103 M 21.999156 3.499103 L 23.000336 3.499103 M 24.001515 3.499103 L 26.998356 3.499103 M 27.999535 3.499103 L 30.999724 3.499103 M 32.000904 3.499103 L 32.998735 3.499103 M 38.001282 3.499103 L 38.999113 3.499103 M 1.99901 4.500282 L 3.000189 4.500282 M 4.001369 4.500282 L 7.001558 4.500282 M 7.999389 4.500282 L 9.000568 4.500282 M 9.998399 4.500282 L 13.999768 4.500282 M 15.998778 4.500282 L 16.999957 4.500282 M 23.000336 4.500282 L 24.999346 4.500282 M 27.999535 4.500282 L 30.999724 4.500282 M 32.000904 4.500282 L 32.998735 4.500282 M 33.999914 4.500282 L 37.000103 4.500282 M 38.001282 4.500282 L 38.999113 4.500282 M 1.99901 5.501461 L 3.000189 5.501461 M 4.001369 5.501461 L 7.001558 5.501461 M 7.999389 5.501461 L 9.000568 5.501461 M 9.998399 5.501461 L 12.000757 5.501461 M 13.999768 5.501461 L 15.998778 5.501461 M 16.999957 5.501461 L 18.001136 5.501461 M 18.998967 5.501461 L 21.001326 5.501461 M 24.001515 5.501461 L 29.000714 5.501461 M 32.000904 5.501461 L 32.998735 5.501461 M 33.999914 5.501461 L 37.000103 5.501461 M 38.001282 5.501461 L 38.999113 5.501461 M 1.99901 6.499292 L 3.000189 6.499292 M 4.001369 6.499292 L 7.001558 6.499292 M 7.999389 6.499292 L 9.000568 6.499292 M 9.998399 6.499292 L 12.000757 6.499292 M 12.998588 6.499292 L 13.999768 6.499292 M 15.000947 6.499292 L 20.000146 6.499292 M 21.001326 6.499292 L 21.999156 6.499292 M 23.000336 6.499292 L 24.001515 6.499292 M 24.999346 6.499292 L 26.000525 6.499292 M 26.998356 6.499292 L 29.000714 6.499292 M 29.998545 6.499292 L 30.999724 6.499292 M 32.000904 6.499292 L 32.998735 6.499292 M 33.999914 6.499292 L 37.000103 6.499292 M 38.001282 6.499292 L 38.999113 6.499292 M 1.99901 7.500472 L 3.000189 7.500472 M 7.999389 7.500472 L 9.000568 7.500472 M 9.998399 7.500472 L 10.999578 7.500472 M 12.000757 7.500472 L 13.999768 7.500472 M 15.000947 7.500472 L 18.001136 7.500472 M 18.998967 7.500472 L 20.000146 7.500472 M 23.000336 7.500472 L 24.001515 7.500472 M 29.000714 7.500472 L 29.998545 7.500472 M 32.000904 7.500472 L 32.998735 7.500472 M 38.001282 7.500472 L 38.999113 7.500472 M 1.99901 8.501651 L 9.000568 8.501651 M 9.998399 8.501651 L 10.999578 8.501651 M 12.000757 8.501651 L 12.998588 8.501651 M 13.999768 8.501651 L 15.000947 8.501651 M 15.998778 8.501651 L 16.999957 8.501651 M 18.001136 8.501651 L 18.998967 8.501651 M 20.000146 8.501651 L 21.001326 8.501651 M 21.999156 8.501651 L 23.000336 8.501651 M 24.001515 8.501651 L 24.999346 8.501651 M 26.000525 8.501651 L 26.998356 8.501651 M 27.999535 8.501651 L 29.000714 8.501651 M 29.998545 8.501651 L 30.999724 8.501651 M 32.000904 8.501651 L 38.999113 8.501651 M 9.998399 9.499482 L 12.000757 9.499482 M 13.999768 9.499482 L 16.999957 9.499482 M 18.001136 9.499482 L 21.001326 9.499482 M 21.999156 9.499482 L 24.001515 9.499482 M 24.999346 9.499482 L 26.998356 9.499482 M 27.999535 9.499482 L 29.000714 9.499482 M 29.998545 9.499482 L 30.999724 9.499482 M 1.99901 10.500661 L 3.000189 10.500661 M 4.001369 10.500661 L 9.000568 10.500661 M 12.998588 10.500661 L 13.999768 10.500661 M 15.998778 10.500661 L 16.999957 10.500661 M 18.001136 10.500661 L 18.998967 10.500661 M 23.000336 10.500661 L 24.001515 10.500661 M 26.000525 10.500661 L 27.999535 10.500661 M 32.000904 10.500661 L 37.000103 10.500661 M 1.99901 11.498492 L 6.000379 11.498492 M 9.000568 11.498492 L 9.998399 11.498492 M 12.000757 11.498492 L 12.998588 11.498492 M 15.000947 11.498492 L 18.001136 11.498492 M 20.000146 11.498492 L 21.001326 11.498492 M 21.999156 11.498492 L 23.000336 11.498492 M 24.999346 11.498492 L 26.000525 11.498492 M 27.999535 11.498492 L 29.000714 11.498492 M 30.999724 11.498492 L 32.000904 11.498492 M 37.000103 11.498492 L 38.001282 11.498492 M 1.99901 12.499671 L 3.000189 12.499671 M 4.999199 12.499671 L 9.998399 12.499671 M 12.998588 12.499671 L 13.999768 12.499671 M 16.999957 12.499671 L 18.998967 12.499671 M 21.001326 12.499671 L 21.999156 12.499671 M 23.000336 12.499671 L 24.999346 12.499671 M 26.000525 12.499671 L 26.998356 12.499671 M 29.000714 12.499671 L 29.998545 12.499671 M 30.999724 12.499671 L 32.998735 12.499671 M 33.999914 12.499671 L 38.999113 12.499671 M 1.99901 13.50085 L 3.000189 13.50085 M 4.001369 13.50085 L 4.999199 13.50085 M 6.000379 13.50085 L 7.999389 13.50085 M 12.000757 13.50085 L 13.999768 13.50085 M 15.000947 13.50085 L 18.001136 13.50085 M 20.000146 13.50085 L 24.999346 13.50085 M 26.000525 13.50085 L 26.998356 13.50085 M 29.000714 13.50085 L 29.998545 13.50085 M 32.000904 13.50085 L 32.998735 13.50085 M 38.001282 13.50085 L 38.999113 13.50085 M 4.999199 14.498681 L 6.000379 14.498681 M 7.999389 14.498681 L 9.998399 14.498681 M 10.999578 14.498681 L 13.999768 14.498681 M 15.998778 14.498681 L 18.001136 14.498681 M 18.998967 14.498681 L 23.000336 14.498681 M 26.000525 14.498681 L 29.998545 14.498681 M 30.999724 14.498681 L 38.999113 14.498681 M 3.000189 15.49986 L 4.001369 15.49986 M 4.999199 15.49986 L 6.000379 15.49986 M 12.000757 15.49986 L 13.999768 15.49986 M 15.000947 15.49986 L 16.999957 15.49986 M 18.001136 15.49986 L 18.998967 15.49986 M 21.001326 15.49986 L 23.000336 15.49986 M 24.999346 15.49986 L 26.000525 15.49986 M 32.998735 15.49986 L 33.999914 15.49986 M 3.000189 16.50104 L 4.999199 16.50104 M 6.000379 16.50104 L 10.999578 16.50104 M 12.000757 16.50104 L 12.998588 16.50104 M 15.000947 16.50104 L 15.998778 16.50104 M 16.999957 16.50104 L 18.001136 16.50104 M 20.000146 16.50104 L 21.001326 16.50104 M 24.001515 16.50104 L 24.999346 16.50104 M 26.000525 16.50104 L 26.998356 16.50104 M 29.000714 16.50104 L 29.998545 16.50104 M 32.000904 16.50104 L 35.998924 16.50104 M 37.000103 16.50104 L 38.999113 16.50104 M 1.99901 17.49887 L 3.000189 17.49887 M 4.001369 17.49887 L 7.999389 17.49887 M 9.000568 17.49887 L 12.000757 17.49887 M 13.999768 17.49887 L 15.000947 17.49887 M 15.998778 17.49887 L 16.999957 17.49887 M 21.001326 17.49887 L 23.000336 17.49887 M 24.999346 17.49887 L 26.000525 17.49887 M 27.999535 17.49887 L 35.001093 17.49887 M 37.000103 17.49887 L 38.999113 17.49887 M 1.99901 18.50005 L 3.000189 18.50005 M 4.001369 18.50005 L 4.999199 18.50005 M 6.000379 18.50005 L 12.998588 18.50005 M 13.999768 18.50005 L 15.998778 18.50005 M 16.999957 18.50005 L 18.001136 18.50005 M 20.000146 18.50005 L 26.000525 18.50005 M 26.998356 18.50005 L 30.999724 18.50005 M 32.000904 18.50005 L 32.998735 18.50005 M 33.999914 18.50005 L 35.001093 18.50005 M 35.998924 18.50005 L 37.000103 18.50005 M 38.001282 18.50005 L 38.999113 18.50005 M 3.000189 19.501229 L 4.999199 19.501229 M 7.001558 19.501229 L 7.999389 19.501229 M 9.998399 19.501229 L 12.998588 19.501229 M 16.999957 19.501229 L 18.998967 19.501229 M 24.999346 19.501229 L 26.000525 19.501229 M 26.998356 19.501229 L 27.999535 19.501229 M 32.998735 19.501229 L 33.999914 19.501229 M 35.001093 19.501229 L 35.998924 19.501229 M 37.000103 19.501229 L 38.001282 19.501229 M 1.99901 20.49906 L 4.001369 20.49906 M 7.001558 20.49906 L 9.998399 20.49906 M 10.999578 20.49906 L 13.999768 20.49906 M 15.000947 20.49906 L 16.999957 20.49906 M 21.999156 20.49906 L 23.000336 20.49906 M 24.001515 20.49906 L 24.999346 20.49906 M 26.000525 20.49906 L 26.998356 20.49906 M 29.000714 20.49906 L 29.998545 20.49906 M 32.000904 20.49906 L 32.998735 20.49906 M 37.000103 20.49906 L 38.999113 20.49906 M 3.000189 21.500239 L 4.001369 21.500239 M 6.000379 21.500239 L 7.999389 21.500239 M 9.000568 21.500239 L 9.998399 21.500239 M 12.000757 21.500239 L 12.998588 21.500239 M 15.000947 21.500239 L 16.999957 21.500239 M 18.001136 21.500239 L 18.998967 21.500239 M 23.000336 21.500239 L 26.000525 21.500239 M 27.999535 21.500239 L 29.000714 21.500239 M 29.998545 21.500239 L 32.998735 21.500239 M 33.999914 21.500239 L 35.001093 21.500239 M 38.001282 21.500239 L 38.999113 21.500239 M 3.000189 22.501418 L 6.000379 22.501418 M 7.001558 22.501418 L 9.000568 22.501418 M 10.999578 22.501418 L 12.998588 22.501418 M 13.999768 22.501418 L 16.999957 22.501418 M 18.001136 22.501418 L 20.000146 22.501418 M 24.001515 22.501418 L 32.998735 22.501418 M 33.999914 22.501418 L 37.000103 22.501418 M 3.000189 23.499249 L 7.001558 23.499249 M 10.999578 23.499249 L 12.000757 23.499249 M 15.000947 23.499249 L 15.998778 23.499249 M 18.998967 23.499249 L 26.998356 23.499249 M 29.998545 23.499249 L 30.999724 23.499249 M 35.001093 23.499249 L 35.998924 23.499249 M 37.000103 23.499249 L 38.001282 23.499249 M 4.999199 24.500428 L 6.000379 24.500428 M 7.999389 24.500428 L 9.000568 24.500428 M 9.998399 24.500428 L 12.000757 24.500428 M 12.998588 24.500428 L 15.000947 24.500428 M 15.998778 24.500428 L 20.000146 24.500428 M 21.999156 24.500428 L 24.001515 24.500428 M 27.999535 24.500428 L 29.998545 24.500428 M 30.999724 24.500428 L 32.000904 24.500428 M 32.998735 24.500428 L 35.998924 24.500428 M 38.001282 24.500428 L 38.999113 24.500428 M 4.001369 25.501608 L 6.000379 25.501608 M 10.999578 25.501608 L 12.998588 25.501608 M 15.998778 25.501608 L 21.001326 25.501608 M 21.999156 25.501608 L 24.999346 25.501608 M 27.999535 25.501608 L 29.000714 25.501608 M 29.998545 25.501608 L 35.001093 25.501608 M 37.000103 25.501608 L 38.999113 25.501608 M 1.99901 26.499439 L 3.000189 26.499439 M 4.001369 26.499439 L 6.000379 26.499439 M 7.999389 26.499439 L 12.000757 26.499439 M 12.998588 26.499439 L 15.000947 26.499439 M 15.998778 26.499439 L 18.998967 26.499439 M 23.000336 26.499439 L 24.001515 26.499439 M 26.998356 26.499439 L 29.000714 26.499439 M 29.998545 26.499439 L 35.001093 26.499439 M 35.998924 26.499439 L 38.001282 26.499439 M 1.99901 27.500618 L 3.000189 27.500618 M 4.999199 27.500618 L 7.999389 27.500618 M 12.000757 27.500618 L 12.998588 27.500618 M 15.000947 27.500618 L 15.998778 27.500618 M 16.999957 27.500618 L 18.001136 27.500618 M 20.000146 27.500618 L 21.001326 27.500618 M 21.999156 27.500618 L 24.999346 27.500618 M 26.000525 27.500618 L 26.998356 27.500618 M 1.99901 28.498449 L 3.000189 28.498449 M 7.999389 28.498449 L 9.000568 28.498449 M 12.998588 28.498449 L 13.999768 28.498449 M 15.000947 28.498449 L 15.998778 28.498449 M 16.999957 28.498449 L 20.000146 28.498449 M 21.001326 28.498449 L 21.999156 28.498449 M 23.000336 28.498449 L 26.000525 28.498449 M 26.998356 28.498449 L 27.999535 28.498449 M 29.000714 28.498449 L 29.998545 28.498449 M 30.999724 28.498449 L 32.000904 28.498449 M 35.001093 28.498449 L 38.999113 28.498449 M 1.99901 29.499628 L 3.000189 29.499628 M 4.001369 29.499628 L 7.999389 29.499628 M 9.998399 29.499628 L 12.000757 29.499628 M 12.998588 29.499628 L 13.999768 29.499628 M 16.999957 29.499628 L 18.001136 29.499628 M 20.000146 29.499628 L 24.001515 29.499628 M 24.999346 29.499628 L 26.998356 29.499628 M 27.999535 29.499628 L 29.998545 29.499628 M 32.000904 29.499628 L 33.999914 29.499628 M 35.001093 29.499628 L 35.998924 29.499628 M 1.99901 30.500807 L 3.000189 30.500807 M 6.000379 30.500807 L 9.000568 30.500807 M 12.000757 30.500807 L 12.998588 30.500807 M 13.999768 30.500807 L 21.999156 30.500807 M 24.001515 30.500807 L 24.999346 30.500807 M 26.000525 30.500807 L 38.001282 30.500807 M 9.998399 31.498638 L 12.998588 31.498638 M 13.999768 31.498638 L 15.998778 31.498638 M 21.001326 31.498638 L 23.000336 31.498638 M 24.999346 31.498638 L 26.000525 31.498638 M 29.000714 31.498638 L 30.999724 31.498638 M 33.999914 31.498638 L 35.998924 31.498638 M 1.99901 32.499817 L 9.000568 32.499817 M 10.999578 32.499817 L 15.000947 32.499817 M 15.998778 32.499817 L 18.001136 32.499817 M 20.000146 32.499817 L 21.001326 32.499817 M 24.001515 32.499817 L 24.999346 32.499817 M 26.000525 32.499817 L 27.999535 32.499817 M 29.998545 32.499817 L 30.999724 32.499817 M 32.000904 32.499817 L 32.998735 32.499817 M 33.999914 32.499817 L 35.001093 32.499817 M 35.998924 32.499817 L 37.000103 32.499817 M 38.001282 32.499817 L 38.999113 32.499817 M 1.99901 33.500997 L 3.000189 33.500997 M 7.999389 33.500997 L 9.000568 33.500997 M 9.998399 33.500997 L 10.999578 33.500997 M 12.000757 33.500997 L 12.998588 33.500997 M 15.000947 33.500997 L 18.998967 33.500997 M 21.999156 33.500997 L 23.000336 33.500997 M 27.999535 33.500997 L 29.000714 33.500997 M 29.998545 33.500997 L 30.999724 33.500997 M 33.999914 33.500997 L 35.998924 33.500997 M 37.000103 33.500997 L 38.999113 33.500997 M 1.99901 34.498827 L 3.000189 34.498827 M 4.001369 34.498827 L 7.001558 34.498827 M 7.999389 34.498827 L 9.000568 34.498827 M 9.998399 34.498827 L 10.999578 34.498827 M 12.000757 34.498827 L 12.998588 34.498827 M 15.000947 34.498827 L 18.001136 34.498827 M 20.000146 34.498827 L 24.999346 34.498827 M 26.000525 34.498827 L 26.998356 34.498827 M 29.000714 34.498827 L 35.001093 34.498827 M 35.998924 34.498827 L 38.999113 34.498827 M 1.99901 35.500007 L 3.000189 35.500007 M 4.001369 35.500007 L 7.001558 35.500007 M 7.999389 35.500007 L 9.000568 35.500007 M 9.998399 35.500007 L 12.000757 35.500007 M 12.998588 35.500007 L 13.999768 35.500007 M 15.000947 35.500007 L 15.998778 35.500007 M 16.999957 35.500007 L 18.998967 35.500007 M 23.000336 35.500007 L 24.001515 35.500007 M 24.999346 35.500007 L 29.000714 35.500007 M 30.999724 35.500007 L 32.998735 35.500007 M 33.999914 35.500007 L 35.001093 35.500007 M 35.998924 35.500007 L 38.001282 35.500007 M 1.99901 36.501186 L 3.000189 36.501186 M 4.001369 36.501186 L 7.001558 36.501186 M 7.999389 36.501186 L 9.000568 36.501186 M 9.998399 36.501186 L 10.999578 36.501186 M 12.000757 36.501186 L 15.000947 36.501186 M 15.998778 36.501186 L 16.999957 36.501186 M 18.998967 36.501186 L 20.000146 36.501186 M 21.999156 36.501186 L 24.001515 36.501186 M 26.000525 36.501186 L 29.000714 36.501186 M 38.001282 36.501186 L 38.999113 36.501186 M 1.99901 37.499017 L 3.000189 37.499017 M 7.999389 37.499017 L 9.000568 37.499017 M 15.998778 37.499017 L 16.999957 37.499017 M 18.001136 37.499017 L 18.998967 37.499017 M 23.000336 37.499017 L 24.999346 37.499017 M 26.000525 37.499017 L 26.998356 37.499017 M 27.999535 37.499017 L 29.000714 37.499017 M 29.998545 37.499017 L 30.999724 37.499017 M 32.000904 37.499017 L 32.998735 37.499017 M 33.999914 37.499017 L 35.998924 37.499017 M 38.001282 37.499017 L 38.999113 37.499017 M 1.99901 38.500196 L 9.000568 38.500196 M 9.998399 38.500196 L 10.999578 38.500196 M 12.000757 38.500196 L 13.999768 38.500196 M 15.998778 38.500196 L 16.999957 38.500196 M 18.001136 38.500196 L 21.001326 38.500196 M 24.001515 38.500196 L 24.999346 38.500196 M 26.000525 38.500196 L 29.998545 38.500196 M 33.999914 38.500196 L 35.001093 38.500196 M 35.998924 38.500196 L 38.999113 38.500196 " stroke="#007acc" stroke-width="1" stroke-opacity="1" stroke-miterlimit="4"/></svg>