<svg xmlns="http://www.w3.org/2000/svg" xmlns:xlink="http://www.w3.org/1999/xlink" width="65" zoomAndPan="magnify" viewBox="0 0 48.75 48.75" height="65" preserveAspectRatio="xMidYMid meet" version="1.0"><defs><clipPath id="01655dff06"><path d="M 0 0 L 48.378906 0 L 48.378906 48.378906 L 0 48.378906 Z M 0 0 " clip-rule="nonzero"/></clipPath></defs><g clip-path="url(#01655dff06)"><path fill="#ffffff" d="M 0 0 L 48.378906 0 L 48.378906 48.378906 L 0 48.378906 Z M 0 0 " fill-opacity="1" fill-rule="nonzero"/></g><path stroke-linecap="butt" transform="matrix(1.935104, 0, 0, 1.935104, -0.000000000000005302, 0.0000021898)" fill-opacity="1" fill="#ffffff" fill-rule="nonzero" stroke-linejoin="miter" d="M 2.000458 2.499057 L 8.999033 2.499057 M 10.000271 2.499057 L 10.99949 2.499057 M 12.000729 2.499057 L 12.999948 2.499057 M 15.999626 2.499057 L 23.000219 2.499057 M 2.000458 3.500296 L 2.999678 3.500296 M 7.999813 3.500296 L 8.999033 3.500296 M 10.000271 3.500296 L 12.000729 3.500296 M 12.999948 3.500296 L 15.000406 3.500296 M 15.999626 3.500296 L 17.000864 3.500296 M 22.001 3.500296 L 23.000219 3.500296 M 2.000458 4.499515 L 2.999678 4.499515 M 4.000916 4.499515 L 7.000593 4.499515 M 7.999813 4.499515 L 8.999033 4.499515 M 10.000271 4.499515 L 12.000729 4.499515 M 12.999948 4.499515 L 13.999168 4.499515 M 15.999626 4.499515 L 17.000864 4.499515 M 18.000084 4.499515 L 20.999761 4.499515 M 22.001 4.499515 L 23.000219 4.499515 M 2.000458 5.500753 L 2.999678 5.500753 M 4.000916 5.500753 L 7.000593 5.500753 M 7.999813 5.500753 L 8.999033 5.500753 M 10.99949 5.500753 L 15.000406 5.500753 M 15.999626 5.500753 L 17.000864 5.500753 M 18.000084 5.500753 L 20.999761 5.500753 M 22.001 5.500753 L 23.000219 5.500753 M 2.000458 6.499973 L 2.999678 6.499973 M 4.000916 6.499973 L 7.000593 6.499973 M 7.999813 6.499973 L 8.999033 6.499973 M 10.000271 6.499973 L 10.99949 6.499973 M 12.000729 6.499973 L 15.000406 6.499973 M 15.999626 6.499973 L 17.000864 6.499973 M 18.000084 6.499973 L 20.999761 6.499973 M 22.001 6.499973 L 23.000219 6.499973 M 2.000458 7.499193 L 2.999678 7.499193 M 7.999813 7.499193 L 8.999033 7.499193 M 12.000729 7.499193 L 12.999948 7.499193 M 15.999626 7.499193 L 17.000864 7.499193 M 22.001 7.499193 L 23.000219 7.499193 M 2.000458 8.500431 L 8.999033 8.500431 M 10.000271 8.500431 L 10.99949 8.500431 M 12.000729 8.500431 L 12.999948 8.500431 M 13.999168 8.500431 L 15.000406 8.500431 M 15.999626 8.500431 L 23.000219 8.500431 M 10.99949 9.499651 L 12.000729 9.499651 M 2.000458 10.500889 L 2.999678 10.500889 M 5.000135 10.500889 L 10.99949 10.500889 M 12.000729 10.500889 L 13.999168 10.500889 M 15.000406 10.500889 L 15.999626 10.500889 M 18.000084 10.500889 L 18.999303 10.500889 M 20.000542 10.500889 L 23.000219 10.500889 M 2.000458 11.500108 L 2.999678 11.500108 M 5.999355 11.500108 L 7.000593 11.500108 M 10.000271 11.500108 L 15.999626 11.500108 M 17.000864 11.500108 L 20.000542 11.500108 M 22.001 11.500108 L 23.000219 11.500108 M 2.000458 12.499328 L 2.999678 12.499328 M 4.000916 12.499328 L 5.000135 12.499328 M 7.999813 12.499328 L 10.000271 12.499328 M 12.999948 12.499328 L 15.000406 12.499328 M 17.000864 12.499328 L 18.000084 12.499328 M 18.999303 12.499328 L 20.000542 12.499328 M 20.999761 12.499328 L 23.000219 12.499328 M 5.000135 13.500566 L 5.999355 13.500566 M 7.000593 13.500566 L 7.999813 13.500566 M 8.999033 13.500566 L 10.99949 13.500566 M 12.000729 13.500566 L 12.999948 13.500566 M 13.999168 13.500566 L 22.001 13.500566 M 2.000458 14.499786 L 2.999678 14.499786 M 4.000916 14.499786 L 5.999355 14.499786 M 7.000593 14.499786 L 10.000271 14.499786 M 10.99949 14.499786 L 18.999303 14.499786 M 22.001 14.499786 L 23.000219 14.499786 M 10.000271 15.499006 L 12.999948 15.499006 M 13.999168 15.499006 L 17.000864 15.499006 M 20.000542 15.499006 L 20.999761 15.499006 M 22.001 15.499006 L 23.000219 15.499006 M 2.000458 16.500244 L 8.999033 16.500244 M 10.000271 16.500244 L 10.99949 16.500244 M 12.000729 16.500244 L 13.999168 16.500244 M 20.000542 16.500244 L 23.000219 16.500244 M 2.000458 17.499463 L 2.999678 17.499463 M 7.999813 17.499463 L 8.999033 17.499463 M 10.000271 17.499463 L 10.99949 17.499463 M 12.000729 17.499463 L 12.999948 17.499463 M 15.999626 17.499463 L 17.000864 17.499463 M 2.000458 18.500702 L 2.999678 18.500702 M 4.000916 18.500702 L 7.000593 18.500702 M 7.999813 18.500702 L 8.999033 18.500702 M 10.000271 18.500702 L 12.000729 18.500702 M 15.000406 18.500702 L 17.000864 18.500702 M 18.000084 18.500702 L 20.000542 18.500702 M 22.001 18.500702 L 23.000219 18.500702 M 2.000458 19.499921 L 2.999678 19.499921 M 4.000916 19.499921 L 7.000593 19.499921 M 7.999813 19.499921 L 8.999033 19.499921 M 10.000271 19.499921 L 10.99949 19.499921 M 12.000729 19.499921 L 12.999948 19.499921 M 13.999168 19.499921 L 17.000864 19.499921 M 18.000084 19.499921 L 20.000542 19.499921 M 2.000458 20.499141 L 2.999678 20.499141 M 4.000916 20.499141 L 7.000593 20.499141 M 7.999813 20.499141 L 8.999033 20.499141 M 12.000729 20.499141 L 15.999626 20.499141 M 17.000864 20.499141 L 20.000542 20.499141 M 20.999761 20.499141 L 23.000219 20.499141 M 2.000458 21.500379 L 2.999678 21.500379 M 7.999813 21.500379 L 8.999033 21.500379 M 12.999948 21.500379 L 15.000406 21.500379 M 18.999303 21.500379 L 20.999761 21.500379 M 22.001 21.500379 L 23.000219 21.500379 M 2.000458 22.499599 L 8.999033 22.499599 M 10.000271 22.499599 L 10.99949 22.499599 M 12.000729 22.499599 L 12.999948 22.499599 M 13.999168 22.499599 L 15.999626 22.499599 M 17.000864 22.499599 L 18.999303 22.499599 M 20.000542 22.499599 L 22.001 22.499599 " stroke="#007acc" stroke-width="1" stroke-opacity="1" stroke-miterlimit="4"/></svg>