<svg xmlns="http://www.w3.org/2000/svg" xmlns:xlink="http://www.w3.org/1999/xlink" width="500" zoomAndPan="magnify" viewBox="0 0 375 374.999991" height="500" preserveAspectRatio="xMidYMid meet" version="1.0"><rect x="-37.5" width="450" fill="#ffffff" y="-37.499999" height="449.999989" fill-opacity="1"/><rect x="-37.5" width="450" fill="#ffffff" y="-37.499999" height="449.999989" fill-opacity="1"/><rect x="-37.5" width="450" fill="#007acc" y="-37.499999" height="449.999989" fill-opacity="1"/><path fill="#ffffff" d="M 82.910156 188.730469 L 82.792969 204.097656 L 131.601562 204.097656 L 131.601562 342.789062 L 166.125 342.789062 L 166.125 204.097656 L 214.9375 204.097656 L 214.9375 189.039062 C 214.9375 180.703125 214.757812 173.730469 214.519531 173.554688 C 214.339844 173.320312 184.640625 173.203125 148.621094 173.261719 L 83.085938 173.4375 Z M 82.910156 188.730469 " fill-opacity="1" fill-rule="nonzero"/><path fill="#ffffff" d="M 302.59375 173.011719 C 312.113281 175.386719 319.378906 179.617188 326.042969 186.519531 C 329.488281 190.210938 334.613281 196.933594 335.023438 198.542969 C 335.140625 199.027344 318.835938 209.96875 308.949219 216.109375 C 308.597656 216.34375 307.175781 214.789062 305.566406 212.417969 C 300.746094 205.386719 295.679688 202.351562 287.945312 201.824219 C 276.578125 201.050781 269.253906 206.996094 269.3125 216.941406 C 269.3125 219.859375 269.734375 221.585938 270.921875 223.960938 C 273.429688 229.144531 278.070312 232.234375 292.644531 238.550781 C 319.496094 250.09375 330.980469 257.710938 338.128906 268.550781 C 346.097656 280.632812 347.886719 299.910156 342.464844 314.253906 C 336.519531 329.851562 321.753906 340.445312 300.980469 343.960938 C 294.550781 345.085938 279.316406 344.910156 272.402344 343.667969 C 257.34375 340.984375 243.0625 333.542969 234.257812 323.789062 C 230.800781 319.980469 224.078125 310.035156 224.488281 309.316406 C 224.679688 309.082031 226.214844 308.128906 227.945312 307.117188 C 229.613281 306.167969 235.929688 302.535156 241.875 299.078125 L 252.640625 292.835938 L 254.914062 296.160156 C 258.0625 300.980469 264.976562 307.585938 269.136719 309.800781 C 281.105469 316.097656 297.523438 315.203125 305.625 307.953125 C 309.082031 304.789062 310.503906 301.523438 310.503906 296.703125 C 310.503906 292.351562 309.976562 290.449219 307.707031 287.183594 C 304.789062 283.007812 298.84375 279.492188 281.9375 272.183594 C 262.589844 263.847656 254.253906 258.660156 246.636719 250.445312 C 242.226562 245.683594 238.066406 238.066406 236.339844 231.695312 C 234.902344 226.40625 234.550781 213.132812 235.679688 207.773438 C 239.679688 189.082031 253.785156 176.042969 274.132812 172.175781 C 280.738281 170.933594 296.105469 171.402344 302.59375 173.011719 Z M 302.59375 173.011719 " fill-opacity="1" fill-rule="nonzero"/></svg>